<?xml version="1.0" encoding="UTF-8"?><svg id="Warstwa_1" xmlns="http://www.w3.org/2000/svg" xmlns:xlink="http://www.w3.org/1999/xlink" viewBox="0 0 518.3 79.72"><defs><style>.cls-1{fill:#d0a53e;}.cls-2{fill:#706f6f;}.cls-3{fill:#1d1d1b;}.cls-4{fill:none;}.cls-5{clip-path:url(#clippath);}</style><clipPath id="clippath"><rect class="cls-4" x="105.2" y="8.53" width="412.34" height="70.03"/></clipPath></defs><g class="cls-5"><path class="cls-3" d="M476.58,64.37l1.21.49v4.2c0,1.14.31,1.97.97,2.55.67.63,1.69.91,2.76.93,1.09.02,2.12-.26,2.76-.84.93-.79,1.14-1.72,1.16-2.9.05-2.74.09-3.58.12-3.92l1.11-.53.12-.44c-.6,0-1.21.02-1.85.02-.47,0-.97-.02-1.48-.02l-.14.46,1.16.51c.05.98.05,2.16.05,4.06,0,.65-.12,1.21-.37,1.58-.44.67-1.14.97-1.98.97s-1.51-.32-1.88-.9c-.23-.35-.33-.79-.33-1.46v-4.25l.77-.49.16-.47c-.67,0-1.34.02-2,.02-.72,0-1.42-.02-2.12-.02l-.19.46ZM470.86,64.34l1.07.53v3.07c0,2.13-.03,3.23-.09,3.43l-1,.51-.14.46c.79,0,1.6-.02,2.37-.02s1.48.02,2.21.02l.14-.46-1.25-.51c-.04-.23-.07-1.32-.07-3.43v-3.07l.97-.51.14-.44c-.75,0-1.49.02-2.23.02-.67,0-1.3-.02-1.99-.02l-.14.42ZM454.98,64.37c.95.42,1.14.56,1.32.91.83,1.62,3.16,6.5,3.6,7.34h.19c.33-.26.83-.77,1.05-1.16.47-.83.86-1.62,1.42-2.63h.04c.76,1.51,1.56,3.27,1.83,3.79h.23c.28-.23.76-.79.98-1.16,1.18-2.85,2.51-5.73,2.81-6.25.18-.3.35-.39,1.25-.84l.14-.46c-.53,0-1.05.02-1.6.02h-1.02l-.16.44.42.53c-.67,1.88-1.58,3.95-2.04,5.16l-.04.02c-.69-1.42-1.25-2.51-1.42-2.93.72-1.37,1.04-1.84,1.18-2.09.12-.18.32-.28,1.09-.69l.18-.46c-.42,0-.84.02-1.25.02h-.77l-.04.05-.02.72c-.19.54-.37.88-.74,1.65h-.05c-.47-.98-.69-1.39-.77-1.69l-.11-.69-.05-.05h-.98c-.61,0-1.21-.02-1.84-.02l-.16.44c.72.39.97.53,1.11.77.26.51.86,1.63,1.42,2.86-.47.95-.84,1.63-1.14,2.21h-.05c-1.63-3.44-2.35-4.87-2.6-5.45l.42-.4.14-.44c-.65,0-1.23.02-1.83.02-.67,0-1.32-.02-1.97-.02l-.18.46ZM449.69,65.85c.25.67.61,1.65,1.12,2.97-.44,0-1.91-.03-2.3-.03.32-.79.53-1.37,1.14-2.93h.04ZM449.2,64.39l.1.32c.04.1.04.21-.03.33-1.11,2.6-2.58,5.71-2.92,6.3l-.91.51-.12.47c.51,0,1.02-.04,1.53-.04.58,0,1.19.04,1.77.04l.12-.46-1.14-.51c.12-.4.28-.81.61-1.65,1.88.02,2.39-.02,2.88-.04.33.77.65,1.55.74,1.77l-.47.44-.12.44c.68,0,1.28-.04,1.93-.04s1.39.04,2.04.04l.16-.47c-1-.4-1.16-.47-1.37-.97-1.72-4.07-2.42-5.66-2.67-6.25-.14-.35-.21-.49-.17-.88l-.11-.11-1.84.74ZM436.45,68.8l-.07.81,1.25-.68c0,1.42-.04,2.35-.05,2.44l-1.16.53-.12.44c.86,0,1.69-.02,2.42-.02,3.48,0,4.32.05,4.87.05.16-.54.4-2.14.46-2.72h-.28c-.37.37-1.32,1.55-1.65,1.97l-2.25-.12c-.04-.47-.05-1.33-.05-3.72l1.76-.95.05-.81-1.81,1v-2.12l1.09-.49.14-.47c-.86,0-1.61.02-2.37.02-.68,0-1.35-.02-2.04-.02l-.14.42,1.14.54v3.28l-1.18.63ZM434.55,63.72c-.3.05-.91.23-1.41.46-.65-.37-1.37-.49-2.16-.49-2.16,0-5.13,1.32-5.13,4.5s2.67,4.36,5.29,4.36c.77,0,1.88-.21,2.44-.33.19-.21.74-1.23,1.02-2.11l-.32-.16c-.54.39-1.19.98-1.97,1.67-.19.05-.32.07-.54.07-2.41,0-3.62-1.76-3.62-3.62,0-1.97,1.21-3.49,3.48-3.49.53,0,.98.12,1.3.26.23.63.46,1.33.67,1.7l.31-.14c.12-.21.61-1.76.74-2.55l-.11-.12ZM418.88,64.37c1.84,0,2.76,2.23,2.76,3.79s-.63,3.71-2.46,3.71-2.79-1.98-2.79-3.88.83-3.62,2.48-3.62h.02ZM419.02,63.7c-2.69,0-4.99,1.77-4.99,4.46,0,3,2.57,4.37,4.99,4.37s5.02-1.42,4.97-4.51c-.04-3.11-2.83-4.32-4.95-4.32h-.02ZM403.62,64.58l1.18.3v3.37c0,1.67-.07,2.7-.09,3.11l-1.05.51-.14.46c.79,0,1.58-.02,2.34-.02s1.49.02,2.21.02l.14-.46-1.23-.51c-.03-.53-.05-1.37-.05-3.13v-3.65c1.6-.05,2.6.4,2.6,1.79,0,1.21-.84,1.74-2.09,1.98l-.02.11c.84,1.39,1.62,2.49,2.09,3.07.58.67,1.23,1.02,2.9.98l.18-.19c-.18-.26-.3-.42-1.02-1.44-.6-.83-1.46-2.05-1.85-2.6l.02-.05c.91-.28,2.02-.84,2.02-2.11,0-1.41-1.02-2.28-3.97-2.28-1.41,0-3.41.18-4,.26l-.16.47ZM385.86,61.21c.88.3,1.18.47,1.46.79.98,2.04,4.13,9.49,4.65,10.64h.19c.39-.34.88-1.02,1.18-1.53.49-1.04,1.04-2.2,1.84-3.76h.04c.98,2.18,2,4.6,2.32,5.29h.19c.37-.35.86-1.02,1.12-1.55,1.46-3.72,3.23-8.11,3.71-8.98.4-.4.74-.63,1.51-.91l.14-.47c-.65,0-1.32.02-2,.02h-1.05l-.16.46.53.58c-1,2.92-2.23,6.24-2.92,7.97h-.03c-1.07-2.49-1.74-4.04-1.99-4.6.97-1.88,1.47-2.7,1.7-3.09.37-.35.81-.56,1.58-.86l.12-.47c-.56,0-1.16.02-1.76.02h-.77l-.04.07-.05.9c-.32.81-.58,1.3-1.14,2.53h-.05c-.79-1.81-.95-2.16-1.09-2.58l-.09-.84-.02-.07h-1.37c-.68,0-1.39-.02-2.05-.02l-.12.47c.74.28,1.07.46,1.32.74.51,1.07,1.26,2.67,2.04,4.5-.76,1.58-1.16,2.48-1.65,3.41h-.05c-2.51-5.9-3.07-7.25-3.41-8.17l.44-.47.09-.46h-1.84c-.81,0-1.58-.02-2.34-.02l-.18.47ZM373.3,64.32l1.28.53v3.11c0,2.12-.04,3.27-.09,3.41l-1.16.51-.16.44c.84,0,1.67-.02,2.46-.02h2.57c.81,0,1.63.02,2.51.05.21-.7.47-2.13.53-2.51l-.35-.14c-.35.37-1.21,1.44-1.58,1.9l-2.5-.18c-.05-.84-.05-2.3-.05-2.99.62.04,2.48.19,2.74.19.25-.11.77-.81.86-1.02l-.11-.19c-.91.09-2.34.19-3.5.21v-2.88l2.41-.11c.16.33.63,1.3.84,1.65l.37-.19c.14-.58.33-1.83.39-2.25l-.09-.09c-.53.02-1.33.12-1.53.16h-3.49c-.72,0-1.44-.02-2.19-.02l-.16.42ZM357.63,64.37c.95.42,1.14.56,1.32.91.83,1.62,3.16,6.5,3.6,7.34h.19c.33-.26.83-.77,1.05-1.16.47-.83.86-1.62,1.42-2.63h.04c.76,1.51,1.56,3.27,1.83,3.79h.23c.28-.23.76-.79.98-1.16,1.18-2.85,2.51-5.73,2.81-6.25.18-.3.35-.39,1.25-.84l.14-.46c-.53,0-1.05.02-1.6.02h-1.02l-.16.44.42.53c-.67,1.88-1.58,3.95-2.04,5.16l-.04.02c-.69-1.42-1.25-2.51-1.42-2.93.72-1.37,1.04-1.84,1.18-2.09.12-.18.32-.28,1.09-.69l.18-.46c-.42,0-.84.02-1.25.02h-.77l-.04.05-.02.72c-.19.54-.37.88-.74,1.65h-.05c-.47-.98-.69-1.39-.77-1.69l-.11-.69-.05-.05h-.98c-.61,0-1.21-.02-1.84-.02l-.16.44c.72.39.97.53,1.11.77.26.51.86,1.63,1.42,2.86-.47.95-.84,1.63-1.14,2.21h-.05c-1.63-3.44-2.35-4.87-2.6-5.45l.42-.4.14-.44c-.65,0-1.23.02-1.83.02-.67,0-1.32-.02-1.97-.02l-.18.46ZM342.34,64.34l1.07.54v3c0,1.56-.07,3.18-.07,3.48l-1.04.53-.14.44c.68,0,1.47-.02,2.32-.02.69,0,1.3.02,1.88.02l.16-.44-.91-.53c-.05-1.14-.02-2.2-.02-3.07h2.2c.76,0,1.18-.04,1.49-.07,0,1.02.04,2.11,0,3.14l-.69.51-.14.46c.54,0,1.14-.02,1.93-.02.84,0,1.56.02,2.25.02l.16-.44-1.25-.53c-.05-.23-.09-1.95-.09-3.39v-3.09l1.07-.53.14-.44c-.74,0-1.44.02-2.32.02-.6,0-1.12-.02-1.62-.02l-.14.42.69.54v2.55h-3.69v-2.55l.72-.53.1-.44c-.6,0-1.21.02-1.91.02s-1.42-.02-2-.02l-.16.42ZM340.58,63.72c-.3.05-.91.23-1.41.46-.65-.37-1.37-.49-2.16-.49-2.16,0-5.13,1.32-5.13,4.5s2.67,4.36,5.29,4.36c.77,0,1.88-.21,2.44-.33.19-.21.74-1.23,1.02-2.11l-.32-.16c-.54.39-1.19.98-1.97,1.67-.19.05-.32.07-.54.07-2.41,0-3.62-1.76-3.62-3.62,0-1.97,1.21-3.49,3.48-3.49.53,0,.98.12,1.3.26.23.63.46,1.33.67,1.7l.32-.14c.12-.21.62-1.76.74-2.55l-.11-.12ZM325.84,64.34l1.07.53v3.07c0,2.13-.04,3.23-.09,3.43l-1,.51-.14.46c.79,0,1.6-.02,2.37-.02s1.47.02,2.21.02l.14-.46-1.25-.51c-.04-.23-.07-1.32-.07-3.43v-3.07l.97-.51.14-.44c-.76,0-1.49.02-2.23.02-.67,0-1.3-.02-1.99-.02l-.14.42ZM314.97,64.35l1.18.47v3.11c0,2.13-.04,3.23-.09,3.43l-1,.53-.12.44c.76,0,1.51-.02,2.25-.02.77,0,1.55.02,2.32.02l.12-.46-1.23-.51c-.04-.19-.07-1.32-.07-3.43v-3.09l.91-.51.14-.44c-.74,0-1.48.02-2.21.02-.67,0-1.34-.02-2.02-.02l-.18.46ZM324.51,63.91c-.32-.02-1.84-.11-3-.04-.04.14-.07.47-.04.81-.35.54-1.02,1.39-2.84,3.5v.07c.88,1.26,1.83,2.51,2.44,3.14.72.76,1.32,1.05,3.28,1.11l.18-.25c-.16-.19-.33-.42-1.32-1.6-.95-1.12-2.18-2.74-2.72-3.48v-.05c.76-.9,1.53-1.69,1.83-1.97.16-.14.32-.21.47-.26.44-.16,1.28-.42,1.55-.54l.18-.44ZM310.12,63.69c-2.02,0-3.14,1.16-3.16,2.58-.02.98.58,1.69,1.48,2.14.86.42,1.37.6,2.16.95.67.3.97.61.97,1.14,0,.77-.75,1.23-1.88,1.26-.7.02-1.19-.14-1.32-.21-.39-1.27-.58-1.84-.68-2.09l-.26.09c-.16.21-.65,1.53-.76,1.99.47.47,1.9,1,3.06,1,1.84,0,3.9-.74,3.9-2.67,0-.86-.34-1.63-1.79-2.27-.91-.42-1.6-.65-2.18-.91-.47-.21-.84-.53-.84-1.05,0-.68.69-1.16,1.55-1.16.6,0,1.09.19,1.21.3.16.44.51,1.28.7,1.62l.28-.14c.21-.54.47-1.9.58-2.51l-.18-.11c-.47.12-.97.3-1.21.49-.35-.26-1.02-.44-1.6-.44h-.02ZM302.5,74.58c-.33.16-.79.25-1.09.25-.6,0-.84-.3-.84-.65,0-.44.44-1.12,1.34-1.86.51-.02.72-.02,1.23-.02.68,0,1.37.04,2.04.04l.16-.47c-1-.4-1.16-.47-1.35-.97-1.74-4.07-2.44-5.64-2.69-6.25-.14-.35-.21-.49-.18-.88l-.09-.11-1.84.74.11.3c.02.11.02.23-.04.33-1.12,2.64-2.58,5.74-2.92,6.32l-.91.51-.12.47c.51,0,1.02-.04,1.51-.04.61,0,1.21.04,1.79.04l.12-.47-1.14-.51c.12-.39.26-.79.6-1.63,1.88.02,2.39-.02,2.88-.04.33.77.63,1.51.76,1.79-1.09.84-2.67,1.74-2.67,3.14,0,.9.77,1.39,1.6,1.39s1.48-.39,1.95-.91l-.19-.51ZM299.67,65.85c.25.69.6,1.65,1.11,2.99-.44,0-1.9-.04-2.28-.04.3-.79.53-1.37,1.14-2.95h.04ZM286.39,64.35l1.19.53v3.06c0,1.99-.04,3.36-.05,3.44l-1.16.51-.12.44c.86,0,1.69-.02,2.42-.02,3.46,0,4.32.05,4.85.05.14-.53.39-2.14.44-2.74l-.33.02c-.33.35-1.3,1.58-1.56,1.97l-2.25-.14c-.03-.49-.05-1.53-.05-3.53v-3.06l1.07-.49.16-.47c-.84,0-1.6.02-2.37.02-.68,0-1.37-.02-2.07-.02l-.16.44ZM280.09,59.79l3.74-1.34.02-.23c-.26-.56-.83-1.11-1.25-1.16l-2.81,2.23.3.49ZM281.05,60.42c-2.46,0-3.83,1.63-3.85,3.37,0,1.26.58,2.18,1.81,2.88.9.54,1.67.93,2.6,1.44.72.4,1.16.93,1.16,1.7,0,1.28-.93,2.02-2.41,2.04-.88.02-1.48-.21-1.62-.3-.32-1.44-.6-2.41-.7-2.65l-.28.14c-.21.3-.81,1.83-.93,2.41.4.35,2.07,1.19,3.71,1.19,1.76,0,4.43-.79,4.43-3.58,0-1.04-.37-2.05-2.14-3.02-1.09-.58-2-1.02-2.62-1.37-.65-.37-1.04-.84-1.04-1.56,0-1.09.9-1.86,2.16-1.86.67,0,1.14.18,1.37.35.12.42.56,1.48.79,1.88l.3-.14c.3-.76.63-2.48.65-2.86l-.23-.12c-.51.18-1.07.4-1.32.58-.35-.26-1.02-.51-1.81-.51h-.03ZM257.2,64.37c.95.42,1.14.56,1.32.91.83,1.62,3.16,6.5,3.6,7.34h.19c.33-.26.83-.77,1.05-1.16.47-.83.86-1.62,1.42-2.63h.04c.76,1.51,1.56,3.27,1.83,3.79h.23c.28-.23.76-.79.98-1.16,1.18-2.85,2.51-5.73,2.81-6.25.18-.3.35-.39,1.25-.84l.14-.46c-.53,0-1.05.02-1.6.02h-1.02l-.16.44.42.53c-.67,1.88-1.58,3.95-2.04,5.16l-.04.02c-.68-1.42-1.25-2.51-1.42-2.93.72-1.37,1.04-1.84,1.18-2.09.12-.18.32-.28,1.09-.69l.18-.46c-.42,0-.84.02-1.25.02h-.77l-.04.05-.02.72c-.19.54-.37.88-.74,1.65h-.05c-.47-.98-.68-1.39-.77-1.69l-.11-.69-.05-.05h-.98c-.61,0-1.21-.02-1.84-.02l-.16.44c.72.39.97.53,1.11.77.26.51.86,1.63,1.42,2.86-.48.95-.84,1.63-1.14,2.21h-.05c-1.63-3.44-2.35-4.87-2.6-5.45l.42-.4.14-.44c-.65,0-1.23.02-1.83.02-.67,0-1.32-.02-1.97-.02l-.18.46ZM250.79,62.86l3.11-2.2.03-.28c-.4-.35-1.11-.6-1.63-.63l-1.88,2.65.37.46ZM251.26,64.37c1.84,0,2.76,2.23,2.76,3.79s-.63,3.71-2.46,3.71-2.79-1.98-2.79-3.88.83-3.62,2.48-3.62h.02ZM251.4,63.7c-2.69,0-4.99,1.77-4.99,4.46,0,3,2.56,4.37,4.99,4.37s5.02-1.42,4.97-4.51c-.04-3.11-2.83-4.32-4.95-4.32h-.02ZM237.84,63.91c-.21-.05-1.11-.19-1.37-.19l-.09.07c-.02.51-.05,2.07-.05,2.79l.33-.07c.33-.47.86-1.46,1.11-1.88l1.69.11v3.32c0,2.39,0,2.92-.04,3.28l-1.39.53-.14.46c.9,0,1.79-.02,2.71-.02.86,0,1.7.02,2.56.02l.18-.46-1.63-.53c-.03-.28-.07-.49-.07-3.65v-2.95l1.81-.11c.1.3.53,1.62.68,1.97l.3-.16c.19-.51.54-2.11.65-2.65l-.09-.07c-.39,0-1.11.12-1.49.19h-5.66ZM231.36,63.69c-2.02,0-3.14,1.16-3.16,2.58-.02.98.58,1.69,1.48,2.14.86.42,1.37.6,2.16.95.67.3.97.61.97,1.14,0,.77-.76,1.23-1.88,1.26-.7.02-1.19-.14-1.32-.21-.39-1.27-.58-1.84-.68-2.09l-.26.09c-.16.21-.65,1.53-.76,1.99.47.47,1.9,1,3.06,1,1.84,0,3.9-.74,3.9-2.67,0-.86-.33-1.63-1.79-2.27-.91-.42-1.6-.65-2.18-.91-.47-.21-.84-.53-.84-1.05,0-.68.68-1.16,1.55-1.16.6,0,1.09.19,1.21.3.16.44.51,1.28.7,1.62l.28-.14c.21-.54.47-1.9.58-2.51l-.18-.11c-.48.12-.97.3-1.21.49-.35-.26-1.02-.44-1.6-.44h-.02ZM220.91,65.85c.25.67.61,1.65,1.12,2.97-.44,0-1.92-.03-2.3-.03.32-.79.53-1.37,1.14-2.93h.04ZM220.42,64.39l.11.32c.03.1.03.21-.04.33-1.11,2.6-2.58,5.71-2.92,6.3l-.91.51-.12.47c.51,0,1.02-.04,1.53-.04.58,0,1.19.04,1.77.04l.12-.46-1.14-.51c.12-.4.28-.81.61-1.65,1.88.02,2.39-.02,2.88-.04.33.77.65,1.55.74,1.77l-.48.44-.12.44c.69,0,1.28-.04,1.93-.04s1.39.04,2.04.04l.16-.47c-1-.4-1.16-.47-1.37-.97-1.72-4.07-2.42-5.66-2.67-6.25-.14-.35-.21-.49-.18-.88l-.1-.11-1.84.74ZM210.95,64.34l1.07.53v3.07c0,2.13-.04,3.23-.09,3.43l-1,.51-.14.46c.79,0,1.6-.02,2.37-.02s1.47.02,2.21.02l.14-.46-1.25-.51c-.04-.23-.07-1.32-.07-3.43v-3.07l.97-.51.14-.44c-.76,0-1.49.02-2.23.02-.67,0-1.3-.02-1.98-.02l-.14.42ZM199.92,61.31l1.44.42v4.36c0,3.71,0,4.81-.07,5.13l-1.23.65-.14.46c.84,0,1.7-.02,2.55-.02,1.04,0,2.11.02,3.13.02l.12-.47-2.04-.67c0-.28-.1-.98-.1-5.13v-4.71c1.97,0,3.44.7,3.44,2.84,0,1.65-.91,2.79-2.69,2.95l.16.53c.19.05.46.09.77.09,1.53,0,4.15-.79,4.15-3.64,0-1.05-.39-2.11-1.49-2.79-.88-.54-2.04-.74-3.71-.74-1.18,0-2.51.12-4.13.26l-.16.46ZM193.02,69.67c-.4.25-.97.84-1.3,1.37l-.05.21c.23.44.79,1.09,1.25,1.35l.19-.05c.35-.19,1.07-.9,1.26-1.37l.05-.19c-.23-.47-.93-1.23-1.25-1.39l-.16.07ZM178.16,64.37c1.07.32,1.19.4,1.37.72-.23,1.9-.63,5.34-.83,6.24l-1.02.56-.09.44c.53,0,1.07-.02,1.6-.02.56,0,1.14.02,1.69.02l.14-.44-1.12-.58c-.02-1.09.14-3.81.3-5.78h.04c1.69,4.02,2.21,5.25,2.95,7.01l.53-.19c1.49-3.39,2.5-5.55,3.06-6.78h.02v5.8l-.75.51-.14.46c.72,0,1.42-.02,2.12-.02.76,0,1.48.02,2.21.02l.14-.44-1.32-.54c-.09-.44-.33-5.29-.35-6.48l1.19-.47.12-.47-3.37-.02c0,.26-.02.35-.09.51-1.07,2.23-1.92,3.92-2.39,4.8h-.04c-1.16-2.37-2.14-4.16-2.39-4.78-.07-.18-.02-.33-.02-.53l-3.39.02-.18.46ZM171.92,64.34l1.07.53v3.07c0,2.13-.04,3.23-.09,3.43l-1,.51-.14.46c.79,0,1.6-.02,2.37-.02s1.48.02,2.21.02l.14-.46-1.25-.51c-.04-.23-.07-1.32-.07-3.43v-3.07l.97-.51.14-.44c-.76,0-1.49.02-2.23.02-.67,0-1.3-.02-1.98-.02l-.14.42Z"/><path class="cls-3" d="M501.8,36.9c1.24.53,1.93.89,2.1,1.16,1.39,2.04,3.05,4.59,3.62,5.54.15.33.27.56.27.77,0,3.32-.09,4.15-.12,4.42l-2.37.83-.21.77c1.51,0,3.05-.06,4.57-.06,1.42,0,2.84.06,4.24.06l.21-.77-2.55-.83c-.06-.21-.09-1.19-.09-4.48,0-.15.03-.42.18-.65,1.9-3.17,2.99-4.8,3.53-5.48.18-.24.42-.39.65-.5l1.45-.65.27-.83c-.83,0-1.66.03-2.52.03h-2.02l-.27.8.86.65c-.5,1.07-1.51,2.9-2.76,5.04h-.06c-1.78-3.05-2.73-4.65-2.91-5.04l.56-.62.3-.83h-2.87c-1.25,0-2.49-.03-3.77-.03l-.3.71ZM488.96,49.61l-2.01-.98c-.12-.77-.24-5.57-.18-8.66h.06c4.39,5.19,8.3,9.34,10.17,10.88l.89-.18c.06-.42.12-1.33.12-2.13.03-4.03.33-9.87.33-10.64l1.99-.92.24-.8c-1.01,0-2.04.06-3.11.06-.83,0-1.75-.06-2.61-.06l-.3.77,1.96.95c.03.98.15,6.7.15,7.47h-.09c-2.73-2.79-4.5-4.68-7.44-7.88-.59-.65-.86-1.13-.95-1.33l-4.83.09-.36.74c1.1.42,1.78.74,2.52,1.66-.15,6.14-.39,9.22-.44,9.96l-2.02,1.01-.24.77c1.01,0,2.02-.06,3.02-.06s1.96.06,2.91.06l.24-.77ZM480.4,36.22h-10.14c-.33,0-1.31-.09-2.49-.15l-.12.12c0,.89.3,3.56.42,4.71l.59-.24c.5-.8,1.19-2.37,1.54-3.14,1.54,0,4.45,0,5.45.03v.09c-2.61,3.68-7.56,10.49-8.86,12.39l.3.32c6.34-.03,12.33.09,13.13.09.24-1.48.47-3.05.68-5.07l-.5.12c-.65.71-2.22,2.88-2.7,3.59-1.01,0-4.62,0-5.75.03l-.03-.09c3.14-4.62,7.91-11.44,8.6-12.45l-.12-.35ZM464.24,35.86c-.5.09-1.54.38-2.37.77-1.1-.62-2.31-.83-3.65-.83-3.65,0-8.66,2.22-8.66,7.59s4.51,7.35,8.92,7.35c1.3,0,3.17-.36,4.12-.56.33-.35,1.25-2.07,1.72-3.56l-.53-.27c-.92.65-2.01,1.66-3.32,2.82-.33.09-.53.12-.92.12-4.06,0-6.11-2.96-6.11-6.11,0-3.32,2.05-5.9,5.87-5.9.89,0,1.66.21,2.19.44.39,1.07.77,2.25,1.13,2.88l.53-.24c.21-.36,1.04-2.96,1.24-4.3l-.18-.21ZM432.56,36.9c1.24.53,1.93.89,2.11,1.16,1.39,2.04,3.05,4.59,3.62,5.54.15.33.27.56.27.77,0,3.32-.09,4.15-.12,4.42l-2.37.83-.21.77c1.51,0,3.05-.06,4.56-.06,1.42,0,2.85.06,4.24.06l.21-.77-2.55-.83c-.06-.21-.09-1.19-.09-4.48,0-.15.03-.42.18-.65,1.9-3.17,2.99-4.8,3.53-5.48.18-.24.41-.39.65-.5l1.45-.65.27-.83c-.83,0-1.66.03-2.52.03h-2.02l-.27.8.86.65c-.5,1.07-1.51,2.9-2.76,5.04h-.06c-1.78-3.05-2.73-4.65-2.91-5.04l.56-.62.3-.83h-2.88c-1.25,0-2.49-.03-3.76-.03l-.3.71ZM420.44,37.25c1.96,0,3.56.3,4.89,1.36,1.51,1.16,1.96,2.64,1.96,4.48,0,1.99-.56,3.53-1.87,4.65-1.42,1.3-3.56,1.54-4.89,1.54-.06-.42-.09-2.73-.09-6.22v-5.81ZM414.71,37.1l2.05.62v5.34c0,3.38-.03,5.31-.15,5.72l-1.78.83-.15.74c1.36.06,2.9.09,4.77.09,2.67,0,4.89-.21,6.58-.74,2.28-.74,5.16-2.46,5.16-6.73,0-4-2.64-6.91-9.93-6.91-3.17,0-5.78.27-6.34.33l-.21.71ZM398.97,36.87l2.16.89v5.25c0,3.59-.06,5.51-.15,5.75l-1.96.86-.27.74c1.42,0,2.82-.03,4.15-.03h4.33c1.36,0,2.76.03,4.24.09.36-1.19.8-3.59.89-4.24l-.59-.24c-.59.62-2.04,2.43-2.67,3.2l-4.21-.3c-.09-1.42-.09-3.88-.09-5.04,1.04.06,4.18.33,4.62.33.42-.18,1.3-1.36,1.45-1.72l-.18-.33c-1.54.15-3.94.33-5.9.35v-4.86l4.06-.18c.27.56,1.07,2.19,1.42,2.79l.62-.33c.24-.98.56-3.08.65-3.79l-.15-.15c-.89.03-2.25.21-2.58.27h-5.9c-1.22,0-2.43-.03-3.71-.03l-.27.71ZM371.77,31.65c2.34.8,2.4.77,2.84,1.78-.56,5.1-1.54,13.55-1.87,15.09l-2.14,1.1-.18.77c1.07,0,2.22-.03,3.29-.03,1.24,0,2.4.03,3.56.03l.18-.77-2.64-1.13c.03-1.87.44-9.46.83-13.81h.06c4.09,9.54,5.34,12.48,6.79,15.95l.68-.15c3.38-8.15,5.57-12.83,7.09-16.3h.12c.06,4.62.12,9.96.18,14.38l-1.78,1.04-.24.8c1.39,0,2.81-.03,4.24-.03s2.91.03,4.24.03l.21-.8-2.7-1.04c-.18-.98-.71-12.75-.74-15.92l2.49-.95.21-.8-6.46-.06c0,.62.03,1.01-.09,1.3-2.52,5.48-5.04,10.49-5.81,12.12h-.06c-3.05-6.4-5.25-10.7-5.87-12.21-.09-.21-.12-.5-.15-1.22l-5.96.06-.33.77ZM350.04,36.19c-.36-.09-1.87-.33-2.31-.33l-.15.12c-.03.86-.09,3.5-.09,4.71l.56-.12c.56-.8,1.45-2.46,1.87-3.17l2.85.18v5.6c0,4.03,0,4.92-.06,5.54l-2.34.89-.24.77c1.51,0,3.02-.03,4.56-.03,1.45,0,2.88.03,4.33.03l.3-.77-2.76-.89c-.06-.47-.12-.83-.12-6.17v-4.98l3.05-.18c.18.5.89,2.73,1.16,3.32l.5-.27c.33-.86.92-3.56,1.1-4.48l-.15-.12c-.65,0-1.87.21-2.52.33h-9.54ZM331.6,36.87l2.16.89v5.25c0,3.59-.06,5.51-.15,5.75l-1.96.86-.27.74c1.42,0,2.82-.03,4.15-.03h4.33c1.36,0,2.76.03,4.24.09.36-1.19.8-3.59.89-4.24l-.59-.24c-.59.62-2.04,2.43-2.67,3.2l-4.21-.3c-.09-1.42-.09-3.88-.09-5.04,1.04.06,4.18.33,4.62.33.42-.18,1.3-1.36,1.45-1.72l-.18-.33c-1.54.15-3.94.33-5.9.35v-4.86l4.06-.18c.27.56,1.07,2.19,1.42,2.79l.62-.33c.24-.98.56-3.08.65-3.79l-.15-.15c-.89.03-2.25.21-2.58.27h-5.9c-1.22,0-2.43-.03-3.71-.03l-.27.71ZM317.46,36.19c-.36-.09-1.87-.33-2.31-.33l-.15.12c-.03.86-.09,3.5-.09,4.71l.56-.12c.56-.8,1.45-2.46,1.87-3.17l2.85.18v5.6c0,4.03,0,4.92-.06,5.54l-2.34.89-.24.77c1.51,0,3.02-.03,4.56-.03,1.45,0,2.88.03,4.33.03l.3-.77-2.76-.89c-.06-.47-.12-.83-.12-6.17v-4.98l3.05-.18c.18.5.89,2.73,1.16,3.32l.5-.27c.33-.86.92-3.56,1.1-4.48l-.15-.12c-.65,0-1.87.21-2.52.33h-9.54ZM296.83,36.9c1.25.53,1.93.89,2.1,1.16,1.39,2.04,3.05,4.59,3.62,5.54.15.33.27.56.27.77,0,3.32-.09,4.15-.12,4.42l-2.37.83-.21.77c1.51,0,3.05-.06,4.57-.06,1.42,0,2.85.06,4.24.06l.21-.77-2.55-.83c-.06-.21-.09-1.19-.09-4.48,0-.15.03-.42.18-.65,1.9-3.17,2.99-4.8,3.53-5.48.18-.24.42-.39.65-.5l1.45-.65.27-.83c-.83,0-1.66.03-2.52.03h-2.02l-.27.8.86.65c-.5,1.07-1.51,2.9-2.76,5.04h-.06c-1.78-3.05-2.73-4.65-2.9-5.04l.56-.62.3-.83h-2.88c-1.24,0-2.49-.03-3.76-.03l-.3.71ZM289.13,35.8c-3.41,0-5.31,1.96-5.34,4.36-.03,1.66.98,2.85,2.49,3.62,1.45.71,2.31,1.01,3.65,1.6,1.13.5,1.63,1.04,1.63,1.93,0,1.3-1.27,2.07-3.17,2.13-1.19.03-2.02-.24-2.22-.36-.65-2.13-.98-3.11-1.16-3.53l-.44.15c-.27.36-1.1,2.58-1.27,3.35.8.8,3.2,1.69,5.16,1.69,3.11,0,6.58-1.25,6.58-4.51,0-1.45-.56-2.76-3.02-3.82-1.54-.71-2.7-1.1-3.67-1.54-.8-.35-1.42-.89-1.42-1.78,0-1.16,1.16-1.96,2.61-1.96,1.01,0,1.84.33,2.04.5.27.74.86,2.16,1.19,2.73l.47-.24c.36-.92.8-3.2.98-4.24l-.3-.18c-.8.21-1.63.5-2.04.83-.59-.44-1.72-.74-2.7-.74h-.03ZM265.41,37.31l1.99.5v5.69c0,2.82-.12,4.57-.15,5.25l-1.78.86-.24.77c1.33,0,2.67-.03,3.94-.03s2.52.03,3.73.03l.24-.77-2.07-.86c-.06-.89-.09-2.31-.09-5.28v-6.17c2.7-.09,4.39.68,4.39,3.02,0,2.04-1.42,2.93-3.53,3.35l-.03.18c1.42,2.34,2.73,4.21,3.53,5.19.98,1.13,2.07,1.72,4.89,1.66l.3-.33c-.3-.44-.5-.71-1.72-2.43-1.01-1.39-2.46-3.47-3.11-4.39l.03-.09c1.54-.47,3.41-1.42,3.41-3.56,0-2.37-1.72-3.85-6.7-3.85-2.37,0-5.75.3-6.76.44l-.27.8ZM249.59,36.87l2.16.89v5.25c0,3.59-.06,5.51-.15,5.75l-1.96.86-.27.74c1.42,0,2.82-.03,4.15-.03h4.33c1.36,0,2.76.03,4.24.09.36-1.19.8-3.59.89-4.24l-.59-.24c-.59.62-2.05,2.43-2.67,3.2l-4.21-.3c-.09-1.42-.09-3.88-.09-5.04,1.04.06,4.18.33,4.62.33.41-.18,1.3-1.36,1.45-1.72l-.18-.33c-1.54.15-3.94.33-5.9.35v-4.86l4.06-.18c.27.56,1.07,2.19,1.42,2.79l.62-.33c.24-.98.56-3.08.65-3.79l-.15-.15c-.89.03-2.25.21-2.58.27h-5.9c-1.21,0-2.43-.03-3.7-.03l-.27.71ZM223.15,36.96c1.6.71,1.93.95,2.22,1.54,1.39,2.73,5.34,10.97,6.08,12.39h.33c.56-.44,1.39-1.3,1.78-1.96.8-1.39,1.45-2.73,2.4-4.45h.06c1.27,2.55,2.64,5.51,3.08,6.4h.39c.47-.39,1.27-1.33,1.66-1.96,1.99-4.8,4.24-9.66,4.74-10.55.3-.5.59-.65,2.1-1.42l.24-.77c-.89,0-1.78.03-2.7.03h-1.72l-.27.74.71.89c-1.13,3.17-2.67,6.67-3.44,8.71l-.06.03c-1.16-2.4-2.1-4.24-2.4-4.95,1.21-2.31,1.75-3.11,1.98-3.53.21-.3.53-.47,1.84-1.16l.3-.77c-.71,0-1.42.03-2.11.03h-1.3l-.06.09-.03,1.21c-.33.92-.62,1.48-1.24,2.79h-.09c-.8-1.66-1.16-2.34-1.3-2.85l-.18-1.16-.09-.09h-1.66c-1.04,0-2.04-.03-3.11-.03l-.27.74c1.21.65,1.63.89,1.87,1.3.44.86,1.45,2.76,2.4,4.83-.8,1.6-1.42,2.76-1.93,3.73h-.09c-2.76-5.81-3.97-8.21-4.39-9.19l.71-.68.24-.74c-1.1,0-2.07.03-3.08.03-1.13,0-2.22-.03-3.32-.03l-.3.77ZM213.72,36.9l1.81.89v5.19c0,3.59-.06,5.45-.15,5.78l-1.69.86-.24.77c1.33,0,2.7-.03,4-.03s2.49.03,3.73.03l.24-.77-2.1-.86c-.06-.39-.12-2.22-.12-5.78v-5.19l1.63-.86.24-.74c-1.27,0-2.52.03-3.76.03-1.13,0-2.19-.03-3.35-.03l-.24.71ZM200.06,49.61l-2.02-.98c-.12-.77-.24-5.57-.18-8.66h.06c4.39,5.19,8.3,9.34,10.17,10.88l.89-.18c.06-.42.12-1.33.12-2.13.03-4.03.33-9.87.33-10.64l1.99-.92.24-.8c-1.01,0-2.04.06-3.11.06-.83,0-1.75-.06-2.61-.06l-.3.77,1.96.95c.03.98.15,6.7.15,7.47h-.09c-2.73-2.79-4.51-4.68-7.44-7.88-.59-.65-.86-1.13-.95-1.33l-4.83.09-.36.74c1.1.42,1.78.74,2.52,1.66-.15,6.14-.39,9.22-.44,9.96l-2.02,1.01-.24.77c1.01,0,2.02-.06,3.02-.06s1.96.06,2.9.06l.24-.77ZM171.75,31.62l2.4,1.01c.06,2.55.03,6.4.06,10.76,0,1.57.21,2.91.83,4,1.45,2.58,4.39,3.5,7.23,3.5,3.05,0,5.45-1.33,6.7-3.35.83-1.36,1.13-2.96,1.16-4.71.18-8.92.24-9.57.33-10.11l2.46-1.07.15-.83c-1.16,0-2.43.06-3.65.06-.92,0-1.9-.06-2.85-.06l-.21.83,2.13,1.01c.09,2.82.12,5.87.12,10.31,0,1.78-.39,3.05-1.01,3.94-.92,1.27-2.49,2.05-4.42,2.05-2.07,0-3.59-.8-4.45-2.05-.53-.8-.77-1.81-.77-3.23,0-4.03,0-7.65.03-11.03l1.66-1.01.21-.83c-1.25,0-2.52.06-3.82.06s-2.67-.06-4.03-.06l-.27.8Z"/><path class="cls-1" d="M111.77,10.25l1.11-.61-.62-1.11-1.9,1,.73,2.49-1.73-2.01-1.02.55.71,2.55-1.75-1.99-2.1,1.19.61,1.07,1.45-.64,2.52,2.8,1.08-.58-.71-2.37,1.61,1.92,1.04-.57-1.02-3.7ZM109.76,18.62l5.41-3.13-.68-1.18-5.41,3.13.68,1.18ZM117.74,20.88l.73-.35-3.02-3.14-.7.38.81,2.51-1.86-1.94-.7.36.77,2.49-1.84-1.9-.72.36,1.23,4.04.6-.36-.64-2.44,1.79,1.85.72-.39-.67-2.34,1.74,1.81.62-.38-.64-2.45,1.79,1.91ZM133.24,19.37c2.61-5.63.07-.13,2.77-5.97-1.77,0,.3,0-1.46,0l-1.69,3.85-.54-2.11,1.23-3.32h-1.3s-.7,1.53-.7,1.53l-.68-1.55h-1.47s1.26,3.43,1.26,3.43l-.68,1.88-1.41-3.74-1.53-.02,2.23,6.04h1.59l.67-1.7.63,1.64,1.1.03ZM137.43,15.75c-.08,3.24-2.8,5.83-6.05,5.74-3.25-.08-5.84-2.81-5.75-6.05.08-3.25,2.8-5.84,6.05-5.74,3.26.08,5.85,2.8,5.75,6.06M138.59,15.78c.11-3.89-2.99-7.15-6.89-7.25-3.88-.1-7.15,2.99-7.25,6.89-.1,3.9,3,7.15,6.88,7.25,3.9.1,7.16-3,7.26-6.89M151.99,11.94l5.57-1.6c-.55-1.36-2.06-2.11-3.5-1.69-1.44.41-2.32,1.85-2.07,3.29M120.01,38.13c.19-.32.08-.73-.26-.91-.11-.06-.22-.08-.33-.09.14-.05.26-.15.34-.28.19-.32.08-.73-.26-.91-.33-.18-.76-.07-.96.24-.12.19-.12.41-.03.6-.02-.01-.03-.02-.05-.03-.34-.18-.76-.08-.96.24-.19.32-.08.73.26.91.33.18.76.08.95-.24-.05.27.07.55.34.7.34.18.76.08.96-.24M131.62,33.44c.09-.17.02-.48-.27-.81-.27-.23-.52-.02-.61.1-.22.3-.12.39.04.54.34.26.45.32.61.52.06-.1.15-.19.23-.35M143.98,40.58c-.31,2.51-1.73,4.76-3.87,6.4-.53.41-1.11.78-1.73,1.11-.31.17-.63.32-.95.46-.65.29-1.34.53-2.06.72-1.07.29-2.21.46-3.39.5-.04-.24-.19-1.27-.23-2.03.94.04,2.19.22,2.19.22v-1.07s-1.28.17-2.19.22c.05-.89.23-2.08.23-2.08h-1.12s.18,1.22.23,2.08c-.8-.04-2.19-.22-2.19-.22v1.07s1.27-.19,2.19-.22c-.04.68-.19,1.79-.22,2.04-6.3-.22-11.4-4.18-12.01-9.2-.04.33-.06.67-.06,1.01,0,5.65,5.65,10.22,12.62,10.22s12.62-4.58,12.62-10.22c0-.34-.02-.68-.06-1.01M144.29,36.78c.09-.19.08-.41-.03-.6-.1-.16-.25-.27-.43-.31-.17-.04-.36-.03-.53.07-.08.05-.15.11-.21.18-.11.14-.16.31-.14.48.01.09.04.17.09.25.08.13.2.23.34.28-.11,0-.23.03-.33.09-.08.05-.15.11-.21.17-.16.21-.19.5-.05.74.19.32.62.43.96.24.27-.15.39-.43.34-.7.2.31.62.42.95.24.34-.18.45-.59.26-.91-.15-.24-.42-.36-.69-.33-.09.01-.18.04-.26.08-.02,0-.03.02-.05.03M150.72,23.28c-.44.78-1.34,1.15-2.21.97l1.84-3.39c.64.64.82,1.62.38,2.42M149.26,20.26l-1.91,3.35c-.61-.64-.78-1.6-.35-2.39.44-.8,1.37-1.16,2.26-.96M147.72,37.22c.13.41.2.81.19,1.2-.03,1.56-.17,4.54-.25,5.42-.08.88-.13,1.68.25,1.68s.93-.5.93-.5c0,0,.13.91-.07,1.71-.13.5-.64.93-1.31.96-.76.04-1.28-.14-1.42-.34-.14-.2-.58-.85-.58-.85,0,0-.14,2.82.04,3.59.1.43.48,1.35,1.04,1.93.19.19.39.35.62.43.34.13.61.17.79.19.09,0,.16,0,.21,0,.05,0,.07,0,.07,0,0,0-.47.75-.92.98-.89.45-1.43.43-2.06.09-.5-.27-1.34-1.64-1.72-2.17-.29-.4-.9-2.06-.9-2.06,0,0-.21,2.35-.21,3.16,0,.08,0,.19.02.32.02.27.07.64.12,1.04.08.6.17,1.28.26,1.82.05.36.1.66.13.85.05.33.33,2.73,1.04,3.57.19.22.77.57,1.06.73.09.05.15.09.15.09,0,0-.05.05-.14.13-.27.24-.87.72-1.41.77-.66.06-1.25-.31-1.66-.81-.08-.1-.18-.27-.3-.5-.24-.45-.52-1.12-.76-1.82-.12-.35-.22-.71-.3-1.05-.3-1.3-1.25-4.62-1.25-4.62l-.52-1.68-.16,5.16-2.16-4.67s.06.8.12,1.69c.04.54.07,1.11.1,1.56.07,1.28.68,2.72,1.37,3.36-.17-.04-.33-.06-.49-.07-.15,0-.29,0-.41,0-.23.02-.38.06-.38.06,0,0,0,.08.02.22.02.14.04.34.09.58.05.24.12.51.22.79.1.28.23.58.39.87.38.69.75,1.57,1.11,2.18.12.2.24.38.36.5.08.09.37.11.58.02.07-.03.13-.07.17-.12.08-.1.26-.34.44-.59.18-.24.38-.49.5-.6.07-.07.13-.14.18-.19.16-.18.26-.29.61-.3.27,0,.42,0,.83.1-.32.08-.46.19-.57.32-.1.13-.17.3-.34.52-.28.35-1.34,1.09-1.34,1.09,0,0,.02,0,.05.02.1.03.33.08.53.02.12-.04.32-.13.51-.23.19-.1.38-.21.48-.3.22-.17.48-.35.85-.35s.46.03.63.39c.09.18.13.39.13.39,0,0-.37-.19-.5-.19s-.37.1-.54.2c-.16.1-.44.37-.8.53-.27.12-.6.24-.97.22-.12,0-.25-.03-.38-.07-.23-.07-.35-.23-.35-.23,0,0,.18.43.35.5.16.07.32.11.49.14.16.03.33.04.51.04s.37-.05.57-.08c.1-.01.2-.01.3,0s.21.05.31.12c.28.18.21.76.21.76,0,0-.08-.06-.23-.13-.14-.06-.35-.12-.6-.11-.31,0-.82.11-1.19.03-.24-.05-.48-.12-.69-.22-.21-.1-.39-.24-.5-.41-.3-.46-1.06-.9-1.06-.9,0,0-.03,0-.09-.01-.06-.01-.14-.04-.25-.09-.22-.1-.35-.49-.35-.49,0,0-.08.02-.2.04-.11.02-.26.05-.4.06-.18.02-.32.01-.45,0-.13-.02-.26-.06-.42-.09-.24-.05-.51-.12-.8-.04-.1.03-.19.07-.29.14-.11.07-.19.14-.24.18-.05.04-.08.07-.08.07,0,0,.06-.21.17-.43.11-.23.27-.47.47-.55.42-.17.58.02.94.12.34.09.64.1.78.09.04,0,.07,0,.07,0h.41s-.1-.28-.28-.67c-.18-.4-.45-.91-.79-1.38-.42-.58-.88-1.44-.99-1.59-.4.06-.84,1.06-.84,1.06,0,0-.01-.04-.04-.11-.06-.21-.2-.66-.26-.95-.11-.46-.29-.91-.49-1.29-.32-.63-.65-1.07-.65-1.07,0,0-1.03,3.35-.77,4.05.13.02.29.04.46.07.51.09,1.1.3,1.09,1.06,0,.29-.21.53-.47.73-.17.13-.37.24-.54.32-.17.08-.32.14-.4.17-.04.02-.06.02-.06.02,0,0-.05,2.14.38,3.25.25.66.46,1,.93,1.21.07.03.17.08.27.12.31.14.74.3,1.26.26.58-.05,1.12-.45,1.25-.72.42-.83.34-1.59.34-1.59,0,0,.08-.14.69.03.14.04.28.12.42.24.4.35.73.98.79,1.5.06.57-.03,1.31-.51,1.86-.31.36-.81.59-1.26.68-.15.03-.3.05-.43.05-.32,0-.68-.07-1.01-.16-.55-.15-1-.34-1-.34,0,0,.04.05.1.14.17.26.47.83.08,1.12-.18.14-.43.07-.64-.03-.2-.1-.36-.24-.36-.24,0,0,.4.61.35,1.09-.02.16-.08.31-.22.41-.58.42-1.38-.91-1.38-.91,0,0-.06.47-.29.87-.13.24-.33.45-.61.51h0s0,0,0,0c-.06.01-.11.02-.17.02v-.04c-.09-.02-.18-.06-.26-.11-.16-.1-.29-.24-.39-.4-.1-.16-.18-.32-.24-.47-.06-.15-.09-.27-.11-.34,0-.03-.01-.05-.01-.05,0,0-.81,1.33-1.38.91-.58-.42.13-1.51.13-1.51,0,0-.64.55-1,.27-.52-.39.18-1.26.18-1.26,0,0-1.16.5-2.02.5-.54,0-1.28-.25-1.7-.73-.48-.56-.57-1.29-.51-1.86.06-.52.39-1.15.79-1.5.14-.12.28-.2.42-.24.61-.17.69-.03.69-.03,0,0-.08.76.34,1.59.13.26.67.66,1.25.72.51.04.94-.11,1.26-.26.1-.05.19-.09.27-.12.47-.21.68-.56.93-1.21.43-1.11.38-3.25.38-3.25,0,0-1.47-.49-1.48-1.25-.01-1.02,1.03-1.04,1.55-1.13.25-.7-.77-4.05-.77-4.05,0,0-.86,1.13-1.14,2.37-.09.38-.3,1.06-.3,1.06,0,0-.44-1-.84-1.06-.12.14-.57,1.01-.99,1.59-.68.94-1.07,2.06-1.07,2.06h.41s.4.03.85-.09c.37-.1.52-.29.94-.12.4.16.64.99.64.99,0,0-.11-.11-.32-.25-.1-.07-.2-.11-.29-.14-.29-.08-.55-.02-.8.04-.16.04-.29.07-.42.09-.13.02-.27.03-.45,0-.14-.01-.29-.04-.4-.06-.12-.02-.2-.04-.2-.04,0,0-.13.39-.35.49-.11.05-.19.08-.25.09-.06.01-.09.01-.09.01,0,0-.75.45-1.06.9-.12.18-.29.31-.5.41-.21.1-.45.18-.69.22-.37.08-.89-.02-1.19-.03-.25,0-.46.05-.6.11-.14.06-.22.13-.22.13,0,0-.07-.58.21-.76.42-.26.83-.04,1.19-.04s.66-.05.99-.19c.16-.07.35-.5.35-.5,0,0-.12.16-.35.23-.52.17-.99,0-1.35-.16-.36-.16-.64-.43-.8-.53-.16-.1-.41-.2-.54-.2s-.5.19-.5.19c0,0,.04-.2.13-.39.17-.36.26-.39.62-.39s.63.19.85.35c.11.08.3.19.49.3.19.1.38.19.51.23.2.07.43.01.54-.02.03,0,.05-.02.05-.02,0,0-1.06-.74-1.34-1.09-.35-.44-.26-.67-.91-.84.41-.09.55-.1.83-.1.46,0,.5.21.79.49.24.23.77.98.94,1.19.04.05.1.09.17.12.21.08.5.07.58-.02.12-.13.24-.3.36-.5.36-.61.73-1.49,1.11-2.18.67-1.16.72-2.46.72-2.46,0,0-.6-.17-1.28,0,.7-.64,1.31-2.08,1.37-3.36.06-1.21.21-3.26.21-3.26l-2.16,4.67-.16-5.16-.52,1.68s-.95,3.33-1.25,4.62c-.32,1.37-1.05,2.98-1.36,3.36-.41.5-.99.86-1.66.81-.71-.06-1.55-.9-1.55-.9,0,0,.96-.52,1.21-.82.71-.84.99-3.25,1.04-3.57.11-.73.52-3.4.52-4.03,0-.81-.21-3.16-.21-3.16,0,0-.61,1.66-.9,2.06-.38.53-1.21,1.9-1.72,2.17-.63.33-1.17.36-2.06-.09-.45-.23-.92-.98-.92-.98,0,0,.39.09,1.07-.18.89-.34,1.52-1.79,1.66-2.37.18-.76.04-3.59.04-3.59,0,0-.43.64-.58.85-.14.2-.66.38-1.42.34-.67-.03-1.18-.46-1.31-.96-.21-.8-.07-1.71-.07-1.71,0,0,.55.5.93.5s.33-.8.25-1.68c-.08-.88-.22-3.86-.25-5.42-.03-1.56,1.26-3.43,1.87-4.08,1.03-1.1,2.25-1.52,3.4-1.77,1.08-.24,2.14.19,2.98.88.63.51,1.06,1.07.98,2.38-.06.99-2.13,3-2.36,3.26-.23.26-1.73,1.52-1.73,1.82s.1.38.34.46c.24.07.82.18,1.04.7.23.56-.2,1.22-.2,1.22,0,0,.72-.14,1.33.43.57.54.54,1.25.54,1.25,0,0,.75-.47,1.28-.05.45.36.39,1.01.39,1.01h1.41s.51-1.63,1.6-2.25c.93-.53,1.34-1.3,1.51-1.8l-.03-.37c-.3.18-1.02.53-1.76.36.35-.24,1.53-.98,1.64-1.9.16-1.33-.49-2.98-1.31-4.45-.7-1.33-2.07-1.76-2.07-1.76,0,0,.27-.31.95-.29.94.11,2.11,1.78,2.88,4.25.09.27.26.87.26.87,0,0-.82-5.01-2.96-5.97-.9-.31-1.42.96-1.42.96,0,0-.86-1.33-.04-2.02.84-.7,1.05-.6,1.66-.56.58.04,2.6,1.49,2.6,1.49,0,0,.66-.75,1.14-.79,1.03-.08,1.91.54,2.2.81.26.19.45.38.52.46.4.43,1.24,1.41,1.46,2.3.13.54.22.94.25,1.32.02.39-.03.76-.17,1.22-.08.27-.24.51-.43.73-.09.11-.2.21-.3.31-.1.1-.21.19-.31.28-.38.33-.58.53-.4.89.55,1.15,1.31,1.6,1.66,1.84-.98.22-1.91-.46-1.91-.46,0,0,.04.36.27.82.23.46.63,1.03,1.36,1.44.27.15.51.37.71.61.2.24.37.5.5.75.07.12.12.24.17.34.15.32.22.55.22.55h1.41s-.06-.65.39-1.01c.13-.1.28-.15.42-.17.29-.03.57.08.73.15.08.04.13.07.13.07,0,0,0-.18.05-.42.06-.25.2-.56.48-.83.61-.57,1.33-.43,1.33-.43,0,0-.43-.66-.2-1.22.22-.52.79-.63,1.03-.7.24-.07.34-.15.34-.46,0-.15-.38-.54-.78-.93-.4-.39-.84-.77-.95-.89-.11-.13-.69-.7-1.24-1.35-.55-.66-1.08-1.41-1.11-1.9-.08-1.32.35-1.87.98-2.38.83-.68,1.89-1.12,2.98-.88.58.13,1.17.3,1.74.57.58.27,1.14.65,1.65,1.2.46.48,1.3,1.66,1.68,2.87M157.74,10.95l-5.57,1.6c.19.45.48.84.84,1.14l-1.62,2.85-1.71-.95s-.71.47-.53.95c.22.49,1.1,1.4,1.31,1.62l-.55.96c-.49-.52-1.27-1.21-1.86-1.97-.32-.41-.57-.83-.69-1.21-.12-.39-.13-.72.02-1.05.02-.04.04-.08.06-.11.26-.49.75-.72,1.04-.81.53-.16.95-.05,1.24.11.2.11.33.26.34.29.12.25.43.37.69.26.25-.11.36-.41.24-.66-.16-.3-.42-.54-.78-.75-.51-.29-1.25-.44-2.06-.2-.45.13-1.17.47-1.61,1.26-.03.06-.06.12-.09.18-.33.71-.22,1.46.08,2.11.44.98,1.25,1.82,1.92,2.49.07.07.13.13.2.19-1.02.04-1.99.57-2.5,1.5-.69,1.25-.35,2.8.74,3.74l-1.19,2.09h-24.73l-2.74-4.74-4.02,2.32,1.4,2.42h-9.41c.17,8.58.32,31.78,13.27,44.71-1.84,3.89-3.13,6.95-2.75,7.17.36.21,2.22-2.21,4.53-5.52,2.84,2.41,6.21,4.36,10.23,5.64h.06c4.6-1.47,8.36-3.81,11.43-6.72,2.65,3.86,4.87,6.82,5.27,6.6.42-.24-1.22-4-3.4-8.52,11.67-13.12,11.84-35.01,12-43.32v-.03h-9.56l.78-1.44c1.37.42,2.87-.11,3.57-1.36.52-.93.46-2.03-.05-2.91.09.02.18.04.27.06.92.21,2.07.45,3.13.31.7-.1,1.4-.4,1.83-1.05.04-.06.07-.11.1-.17.44-.79.34-1.58.22-2.03-.22-.81-.75-1.35-1.26-1.63-.36-.2-.71-.29-1.05-.26-.28.03-.48.27-.44.55.04.27.3.47.58.45.02,0,.22.02.42.13.29.16.6.46.75.99.08.28.14.82-.13,1.31-.02.04-.04.07-.07.11-.2.3-.49.47-.88.58-.39.1-.88.11-1.4.05-.96-.1-1.96-.39-2.66-.53l.53-.97c.3.07,1.54.32,2.07.25.5-.1.53-.95.53-.95l-1.71-.94,1.56-2.89c.54.18,1.14.21,1.72.04,1.45-.41,2.32-1.85,2.07-3.29"/><path class="cls-3" d="M145.04,37.91c-.33.18-.75.08-.95-.24.05.27-.07.56-.34.7-.34.19-.76.08-.96-.24-.19-.32-.08-.73.26-.91.11-.06.22-.08.33-.09-.14-.05-.26-.15-.34-.28-.19-.32-.08-.73.26-.91.34-.18.76-.08.96.24.12.19.12.41.03.6.02,0,.03-.02.05-.03.33-.18.76-.07.96.24.19.32.08.73-.26.91M143.98,40.58c.04.33.06.67.06,1.01,0,5.65-5.65,10.22-12.62,10.22s-12.62-4.58-12.62-10.22c0-.34.02-.68.06-1.01.61,5.02,5.71,8.98,12.01,9.2.03-.25.18-1.36.22-2.03-.91.04-2.19.22-2.19.22v-1.07s1.38.17,2.19.22c-.05-.86-.23-2.08-.23-2.08h1.12s-.18,1.19-.23,2.08c.91-.04,2.19-.22,2.19-.22v1.07s-1.26-.18-2.19-.22c.03.76.19,1.79.23,2.03,6.3-.22,11.4-4.18,12.01-9.2M131.62,33.44c-.08.17-.17.25-.23.35-.16-.2-.27-.26-.61-.52-.16-.15-.26-.24-.04-.54.09-.12.34-.33.61-.1.29.33.36.64.27.81M120.01,38.13c-.19.32-.62.43-.96.24-.26-.15-.39-.43-.34-.7-.2.31-.62.42-.95.24-.34-.18-.45-.59-.26-.91.19-.32.62-.43.96-.24.02,0,.03.02.05.03-.09-.19-.08-.41.03-.6.19-.32.62-.43.96-.24.33.18.45.59.26.91-.08.13-.2.23-.34.28.11,0,.23.03.33.09.34.19.45.59.26.91M148.84,45.02s-.55.5-.93.5-.33-.8-.25-1.68c.08-.88.22-3.86.25-5.42.03-1.56-1.26-3.43-1.87-4.08-1.04-1.1-2.25-1.52-3.4-1.77-1.08-.24-2.14.19-2.98.88-.63.51-1.06,1.07-.98,2.38.06.98,2.13,3,2.36,3.26s1.73,1.52,1.73,1.82-.1.38-.34.46c-.24.07-.82.18-1.03.7-.23.56.2,1.22.2,1.22,0,0-.72-.14-1.33.43-.57.54-.54,1.25-.54,1.25,0,0-.75-.47-1.28-.05-.45.36-.39,1.01-.39,1.01h-1.41s-.51-1.64-1.6-2.25c-1.46-.83-1.63-2.26-1.63-2.26,0,0,.93.68,1.91.46-.35-.24-1.1-.69-1.66-1.84-.18-.37.03-.56.4-.89.41-.36.87-.78,1.04-1.32.29-.93.19-1.48-.08-2.54-.22-.9-1.06-1.87-1.46-2.3-.08-.08-.26-.27-.52-.46-.29-.27-1.18-.89-2.2-.81-.49.04-1.15.79-1.15.79,0,0-2.02-1.45-2.6-1.49-.6-.04-.81-.14-1.66.56-.83.69.04,2.02.04,2.02,0,0,.52-1.27,1.42-.96,2.14.96,2.96,5.97,2.96,5.97,0,0-.17-.6-.26-.87-.77-2.47-1.93-4.14-2.88-4.25-.68-.02-.95.29-.95.29,0,0,1.38.43,2.07,1.76.81,1.47,1.46,3.12,1.31,4.45-.11.92-1.3,1.66-1.64,1.9.75.17,1.46-.18,1.76-.36l.03.37c-.17.49-.58,1.27-1.51,1.8-1.09.62-1.6,2.25-1.6,2.25h-1.41s.06-.65-.39-1.01c-.53-.42-1.28.05-1.28.05,0,0,.03-.72-.54-1.25-.61-.57-1.33-.43-1.33-.43,0,0,.43-.66.2-1.22-.22-.52-.79-.63-1.03-.7-.24-.07-.34-.15-.34-.46s1.51-1.56,1.73-1.82c.23-.26,2.3-2.27,2.35-3.26.08-1.32-.35-1.87-.98-2.38-.83-.68-1.89-1.12-2.98-.88-1.15.26-2.36.68-3.4,1.77-.61.65-1.9,2.52-1.87,4.08.03,1.56.17,4.54.25,5.42.08.88.13,1.68-.25,1.68s-.93-.5-.93-.5c0,0-.13.91.07,1.71.13.5.64.93,1.31.97.77.04,1.28-.14,1.42-.35.14-.2.58-.85.58-.85,0,0,.14,2.82-.04,3.59-.13.58-.76,2.02-1.66,2.37-.68.26-1.07.17-1.07.17,0,0,.47.75.92.98.89.45,1.43.42,2.06.09.51-.27,1.34-1.64,1.72-2.17.29-.4.9-2.06.9-2.06,0,0,.21,2.35.21,3.16,0,.63-.41,3.3-.51,4.03-.05.32-.33,2.73-1.04,3.57-.25.3-1.21.82-1.21.82,0,0,.84.83,1.55.9.66.06,1.25-.31,1.66-.81.32-.38,1.04-2,1.36-3.36.3-1.3,1.25-4.62,1.25-4.62l.52-1.68.16,5.16,2.16-4.67s-.15,2.05-.21,3.26c-.07,1.28-.68,2.72-1.37,3.36.68-.17,1.28,0,1.28,0,0,0-.05,1.31-.72,2.46-.51.92-1,2.17-1.47,2.68-.11.12-.58.11-.75-.1-.17-.21-.7-.96-.94-1.19-.3-.28-.33-.48-.79-.49-.27,0-.42,0-.83.1.65.17.56.4.91.84.28.35,1.34,1.09,1.34,1.09,0,0-.32.12-.59.04-.25-.08-.77-.36-.99-.53-.22-.17-.48-.35-.85-.35s-.46.03-.63.39c-.09.19-.13.39-.13.39,0,0,.37-.19.5-.19s.37.1.54.2c.16.1.44.37.8.53.36.16.82.32,1.35.15.23-.07.35-.23.35-.23,0,0-.18.43-.35.5-.33.14-.63.19-.99.19s-.77-.22-1.19.04c-.28.18-.21.76-.21.76,0,0,.32-.25.83-.24.31,0,.82.11,1.19.03.48-.1.96-.29,1.19-.64.3-.46,1.06-.9,1.06-.9,0,0,.12,0,.34-.11.22-.1.35-.49.35-.49,0,0,.32.07.6.1.36.04.55-.03.87-.1.32-.07.69-.17,1.09.1.22.15.32.25.32.25,0,0-.24-.83-.64-.99-.42-.17-.58.02-.94.12-.45.12-.85.09-.85.09h-.41s.39-1.11,1.08-2.05c.42-.58.88-1.44.99-1.59.4.06.84,1.06.84,1.06,0,0,.21-.68.3-1.06.28-1.24,1.14-2.37,1.14-2.37,0,0,1.03,3.35.77,4.05-.52.09-1.56.11-1.55,1.13,0,.76,1.48,1.25,1.48,1.25,0,0,.05,2.14-.38,3.25-.25.66-.46,1-.93,1.21-.3.13-.85.44-1.53.38-.58-.05-1.12-.45-1.25-.72-.42-.82-.34-1.59-.34-1.59,0,0-.08-.13-.69.03-.57.16-1.13,1.05-1.21,1.74-.06.57.03,1.3.51,1.86.41.48,1.16.73,1.7.73.85,0,2.02-.5,2.02-.5,0,0-.7.87-.18,1.26.36.28,1-.27,1-.27,0,0-.71,1.08-.13,1.51.58.42,1.38-.91,1.38-.91,0,0,.25,1.2,1.01,1.36v.04c.06,0,.12,0,.17-.02h0c.74-.17.89-1.38.89-1.38,0,0,.81,1.33,1.38.91.58-.42-.13-1.51-.13-1.51,0,0,.64.55,1,.27.52-.39-.18-1.26-.18-1.26,0,0,1.16.5,2.02.5.54,0,1.28-.25,1.7-.73.48-.56.58-1.29.51-1.86-.08-.69-.64-1.58-1.21-1.74-.61-.17-.69-.03-.69-.03,0,0,.07.76-.34,1.59-.13.26-.67.66-1.25.72-.68.06-1.22-.24-1.53-.38-.47-.21-.68-.56-.93-1.21-.43-1.11-.38-3.25-.38-3.25,0,0,1.47-.49,1.48-1.25.01-1.02-1.03-1.04-1.55-1.13-.25-.7.77-4.05.77-4.05,0,0,.86,1.13,1.14,2.37.09.38.3,1.06.3,1.06,0,0,.44-1,.84-1.06.12.14.57,1.01.99,1.59.68.94,1.07,2.05,1.07,2.05h-.41s-.4.03-.85-.09c-.37-.1-.52-.29-.94-.12-.4.16-.64.99-.64.99,0,0,.11-.11.32-.25.4-.27.77-.17,1.09-.1.32.07.51.14.87.1.28-.03.6-.1.6-.1,0,0,.13.39.35.49.22.1.34.11.34.11,0,0,.75.45,1.06.9.23.35.71.54,1.19.64.37.08.89-.02,1.19-.03.51-.01.83.24.83.24,0,0,.07-.58-.21-.76-.42-.26-.83-.04-1.19-.04s-.66-.05-.99-.19c-.16-.07-.35-.5-.35-.5,0,0,.12.16.35.23.53.17.99,0,1.35-.15.36-.16.64-.43.8-.53.16-.1.41-.2.54-.2s.5.19.5.19c0,0-.04-.2-.13-.39-.17-.36-.26-.39-.63-.39s-.63.19-.85.35c-.22.17-.74.45-.99.53-.27.09-.59-.04-.59-.04,0,0,1.06-.74,1.34-1.09.35-.44.26-.67.91-.84-.41-.09-.55-.1-.83-.1-.46,0-.5.21-.79.49-.24.23-.77.98-.94,1.19-.17.21-.64.21-.75.1-.48-.5-.96-1.76-1.47-2.68-.67-1.16-.72-2.46-.72-2.46,0,0,.6-.17,1.28,0-.7-.64-1.31-2.08-1.37-3.36-.06-1.21-.21-3.26-.21-3.26l2.16,4.67.16-5.16.52,1.68s.95,3.33,1.25,4.62c.32,1.37,1.05,2.98,1.36,3.36.41.5.99.87,1.66.81.71-.06,1.55-.9,1.55-.9,0,0-.96-.52-1.21-.82-.71-.84-.99-3.25-1.04-3.57-.11-.73-.52-3.4-.52-4.03,0-.81.21-3.16.21-3.16,0,0,.61,1.66.9,2.06.38.53,1.21,1.9,1.72,2.17.63.33,1.17.36,2.06-.09.45-.23.92-.98.92-.98,0,0-.39.09-1.07-.17-.89-.34-1.52-1.79-1.66-2.37-.18-.76-.04-3.59-.04-3.59,0,0,.43.64.58.85.14.2.66.38,1.42.35.67-.03,1.18-.46,1.31-.97.21-.8.07-1.71.07-1.71"/></g><path class="cls-1" d="M53.23,29.07l.81-1.81h19.97v-1.18h-20.73l-1.82,4.04.85.05c12.55.77,22.38,11.24,22.38,23.82s-10.71,23.87-23.87,23.87c-13.85,0-24.3-10.84-24.3-25.21v-1.57l2.55-5.66h0s21.75,0,21.75,0c4.73,0,8.58,3.85,8.58,8.58s-3.85,8.58-8.58,8.58c-5.3,0-9.01-4.08-9.01-9.92v-1.7h-1.18v1.7c0,6.53,4.19,11.1,10.19,11.1,5.38,0,9.75-4.38,9.75-9.75s-4.38-9.75-9.75-9.75h-21.2l14.53-32.28h29.86s0-1.18,0-1.18h-29.34,0s3.69-8.19,3.69-8.19l.37-.83H.91v1.18h46l-30.15,66.94h1.29l7.31-16.23h0c.47,14.54,11.26,25.39,25.46,25.39s25.05-11.24,25.05-25.05c0-12.92-9.88-23.71-22.64-24.93Z"/><path class="cls-1" d="M50.83,79.17c-6.89,0-13.27-2.58-17.97-7.28-4.57-4.56-7.25-10.84-7.6-17.71l-7.13,15.82h-1.56l.08-.18L46.72,3.07H.79v-1.43h48.14l-4.06,9.02h29.27v1.43h-29.9l-14.42,32.03h21c5.45,0,9.88,4.43,9.88,9.88s-4.43,9.88-9.88,9.88c-6.07,0-10.31-4.62-10.31-11.22v-1.82h1.43v1.82c0,5.77,3.65,9.8,8.88,9.8,4.66,0,8.45-3.79,8.45-8.45s-3.79-8.45-8.45-8.45h-21.67l-2.5,5.56v1.55c0,14.3,10.39,25.09,24.18,25.09s23.74-10.65,23.74-23.74-9.78-22.93-22.27-23.7l-1.03-.06,1.93-4.28h20.93v1.43h-20.01l-.71,1.58c6.15.63,11.83,3.5,16.02,8.1,4.23,4.65,6.57,10.67,6.57,16.94,0,13.88-11.29,25.17-25.17,25.17ZM25.47,53.11l.02.54c.47,14.41,11.36,25.27,25.33,25.27s24.92-11.18,24.92-24.92c0-12.92-9.69-23.58-22.53-24.81l-.17-.02.92-2.04h19.92v-.93h-20.52l-1.71,3.8.67.04c12.62.78,22.5,11.3,22.5,23.95s-10.76,23.99-23.99,23.99c-13.92,0-24.43-10.89-24.43-25.34v-1.62s2.59-5.73,2.59-5.73h21.83c4.8,0,8.7,3.9,8.7,8.7s-3.9,8.7-8.7,8.7c-5.38,0-9.13-4.13-9.13-10.05v-1.57h-.93v1.57c0,6.46,4.14,10.97,10.06,10.97,5.31,0,9.63-4.32,9.63-9.63s-4.32-9.63-9.63-9.63h-21.39l.08-.18,14.56-32.35h29.81v-.93h-29.52l.2-.2,3.97-8.82H1.04v.93h46.07l-.08.18-30.07,66.76h1.02l7.5-16.65Z"/><path class="cls-1" d="M74.01,24.12v-1.18h-22.76l-4.65,10.32h4.22c11.43,0,20.73,9.3,20.73,20.73s-9.3,20.73-20.73,20.73c-12.07,0-21.16-9.49-21.16-22.08v-1.7h-1.18v1.7c0,13.26,9.6,23.25,22.34,23.25,12.08,0,21.91-9.83,21.91-21.91s-9.83-21.91-21.91-21.91h-2.4l3.59-7.97h22Z"/><path class="cls-1" d="M50.83,76.03c-12.81,0-22.46-10.05-22.46-23.38v-1.82h1.43v1.82c0,12.51,9.04,21.95,21.04,21.95,11.36,0,20.61-9.24,20.61-20.61s-9.24-20.61-20.61-20.61h-4.41l4.76-10.57h22.96v1.43h-22.04l-3.47,7.72h2.2c12.15,0,22.03,9.88,22.03,22.03s-9.88,22.03-22.03,22.03ZM28.61,51.08v1.57c0,13.19,9.55,23.13,22.21,23.13,12.01,0,21.78-9.77,21.78-21.78s-9.77-21.78-21.78-21.78h-2.59l3.7-8.22h21.95v-.93h-22.55l-4.53,10.07h4.02c11.5,0,20.86,9.36,20.86,20.86s-9.36,20.86-20.86,20.86c-12.14,0-21.29-9.54-21.29-22.2v-1.57h-.93Z"/><path class="cls-1" d="M74.01,13.93h-28.59l-12.76,28.36h18.17c6.46,0,11.72,5.26,11.72,11.71s-5.26,11.71-11.72,11.71c-7.04,0-12.15-5.49-12.15-13.06v-1.7h-1.18v1.7c0,8.25,5.6,14.24,13.32,14.24,7.11,0,12.89-5.78,12.89-12.89s-5.78-12.89-12.89-12.89h-16.35l11.7-26.01h27.83v-1.18Z"/><path class="cls-1" d="M50.83,67.02c-7.79,0-13.45-6.04-13.45-14.36v-1.82h1.43v1.82c0,7.49,5.06,12.93,12.02,12.93,6.39,0,11.59-5.2,11.59-11.59s-5.2-11.59-11.59-11.59h-18.36l.08-.18,12.8-28.43h28.79v1.43h-27.87l-11.59,25.76h16.15c7.18,0,13.02,5.84,13.02,13.02s-5.84,13.02-13.02,13.02ZM37.63,51.08v1.57c0,8.18,5.55,14.11,13.2,14.11,7.04,0,12.77-5.73,12.77-12.77s-5.73-12.77-12.77-12.77h-16.54l.08-.18,11.74-26.08h27.78v-.93h-28.38l-12.65,28.11h17.97c6.53,0,11.84,5.31,11.84,11.84s-5.31,11.84-11.84,11.84c-7.11,0-12.27-5.54-12.27-13.18v-1.57h-.93Z"/><path class="cls-1" d="M74.01,17.06h-26.56l-9.94,22.08h13.31c8.19,0,14.85,6.66,14.85,14.85s-6.66,14.85-14.85,14.85c-7.58,0-13.76-5.41-15.04-13.17-.19-1.04-.19-3.01-.18-4.31v-.42s-1.18,0-1.18,0v.42c0,1.35,0,3.38.2,4.52,1.37,8.33,8.03,14.14,16.2,14.14,8.84,0,16.03-7.19,16.03-16.03s-7.19-16.03-16.03-16.03h-11.5l8.88-19.73h25.8v-1.18Z"/><path class="cls-1" d="M50.83,70.15c-8.23,0-14.94-5.86-16.32-14.24-.21-1.15-.21-3.19-.2-4.54v-.54h1.43v.54c0,1.31,0,3.26.18,4.29,1.27,7.69,7.4,13.06,14.92,13.06,8.12,0,14.73-6.61,14.73-14.73s-6.61-14.73-14.73-14.73h-13.51l.08-.18,9.97-22.16h26.77v1.43h-25.84l-8.77,19.48h11.3c8.91,0,16.15,7.25,16.15,16.15s-7.25,16.15-16.15,16.15ZM34.55,51.08v.29c0,1.34,0,3.36.2,4.49,1.36,8.27,7.97,14.04,16.08,14.04,8.77,0,15.9-7.13,15.9-15.9s-7.13-15.9-15.9-15.9h-11.69l.08-.18,8.91-19.81h25.76v-.93h-26.35l-9.83,21.83h13.12c8.26,0,14.98,6.72,14.98,14.98s-6.72,14.98-14.98,14.98c-7.64,0-13.88-5.46-15.16-13.27-.19-1.05-.19-3.02-.19-4.32v-.31s-.93,0-.93,0Z"/><path class="cls-1" d="M74.01,19.81h-24.78l-7.47,16.6h9.07c9.7,0,17.6,7.89,17.6,17.6s-7.89,17.6-17.6,17.6c-9.17,0-16.49-6.53-17.82-15.89-.17-1.23-.17-3.1-.17-4.75h-1.18c0,1.69,0,3.61.19,4.92,1.41,9.95,9.21,16.9,18.98,16.9,10.35,0,18.77-8.42,18.77-18.77s-8.42-18.77-18.77-18.77h-7.25l6.41-14.24h24.02v-1.18Z"/><path class="cls-1" d="M50.83,72.9c-9.83,0-17.69-6.99-19.1-17-.19-1.32-.19-3.24-.19-4.94v-.12h1.43v.12c0,1.65,0,3.51.17,4.74,1.31,9.29,8.59,15.78,17.69,15.78,9.63,0,17.47-7.84,17.47-17.47s-7.84-17.47-17.47-17.47h-9.26l.08-.18,7.5-16.67h24.99v1.43h-24.07l-6.3,13.99h7.06c10.42,0,18.9,8.48,18.9,18.9s-8.48,18.9-18.9,18.9ZM31.79,51.08c0,1.65,0,3.5.18,4.78,1.4,9.89,9.15,16.79,18.86,16.79,10.28,0,18.65-8.37,18.65-18.65s-8.37-18.65-18.65-18.65h-7.44l.08-.18,6.44-14.32h23.98v-.93h-24.58l-7.36,16.35h8.88c9.77,0,17.72,7.95,17.72,17.72s-7.95,17.72-17.72,17.72c-9.23,0-16.61-6.58-17.94-15.99-.17-1.21-.18-3.02-.18-4.65h-.93Z"/><polygon class="cls-1" points=".91 17.07 .91 18.24 23.26 18.24 0 69.89 1.29 69.89 25.08 17.07 .91 17.07"/><path class="cls-1" d="M1.37,70.01H-.19l.08-.18L23.07,18.37H.79v-1.43h24.49l-.08.18L1.37,70.01ZM.19,69.76h1.02L24.89,17.19H1.04v.93h22.42l-.08.18L.19,69.76Z"/><polygon class="cls-1" points=".91 13.93 .91 15.1 28.12 15.1 3.37 69.89 4.66 69.89 29.94 13.93 .91 13.93"/><path class="cls-1" d="M4.74,70.01h-1.56l.08-.18L27.92,15.23H.79v-1.43h29.35l-.08.18L4.74,70.01ZM3.56,69.76h1.02L29.75,14.05H1.04v.93h27.27l-.08.18L3.56,69.76Z"/><polygon class="cls-1" points=".91 4.91 .91 6.09 42.06 6.09 13.26 69.89 14.55 69.89 43.89 4.91 .91 4.91"/><path class="cls-1" d="M14.63,70.01h-1.56L41.87,6.21H.79v-1.43h43.29L14.63,70.01ZM13.45,69.76h1.02L43.69,5.04H1.04v.93h41.22l-28.8,63.8Z"/><polygon class="cls-1" points=".91 10.79 .91 11.97 32.97 11.97 6.88 69.89 8.17 69.89 34.79 10.79 .91 10.79"/><path class="cls-1" d="M8.25,70.01h-1.56l.08-.18L32.77,12.09H.79v-1.43h34.2l-.08.18-26.65,59.17ZM7.07,69.76h1.02L34.59,10.92H1.04v.93h32.13l-.08.18L7.07,69.76Z"/><polygon class="cls-1" points=".91 8.05 .91 9.22 37.21 9.22 9.89 69.89 11.18 69.89 39.03 8.05 .91 8.05"/><path class="cls-1" d="M11.26,70.01h-1.56l.08-.18L37.02,9.35H.79v-1.43h38.44l-.08.18-27.88,61.91ZM10.08,69.76h1.02L38.84,8.17H1.04v.93h36.37l-.08.18-27.24,60.49Z"/><path class="cls-2" d="M54.47,1.77h.96l-1.46,6.49h4.02l-.16.73h-5l1.63-7.21Z"/><path class="cls-2" d="M58.03,9.24h-5.51l1.75-7.71h1.48l-1.46,6.49h4.02l-.27,1.23ZM53.15,8.74h4.48l.05-.23h-4.02l1.46-6.49h-.45l-1.52,6.71Z"/><path class="cls-2" d="M63.15,1.77h1.13l1,7.21h-1.01l-.45-4.15c-.09-.77-.16-1.57-.25-2.35h-.05c-.46.8-.87,1.54-1.31,2.33l-2.4,4.17h-1.06l4.4-7.21ZM60.93,6.07h3.56l-.14.67h-3.61l.19-.67Z"/><path class="cls-2" d="M65.57,9.24h-1.53l-.24-2.24h-2.55l-1.29,2.24h-1.65l4.71-7.71h1.48l1.07,7.71ZM64.49,8.74h.5l-.32-2.31-.11.57h-.25l.19,1.74ZM59.19,8.74h.47l1-1.74h-.26l.13-.46-1.35,2.2ZM61.54,6.49h2.21l-.02-.17h-2.09l-.1.17ZM64.18,5.82h.41l-.53-3.8h-.77l-2.32,3.8h.37l1.04-1.82c.3-.54.6-1.07.92-1.64l.07-.13h.37l.07.22c.04.39.08.78.12,1.18.04.4.08.79.12,1.17l.11,1.01ZM61.92,5.82h1.75l-.1-.95c-.04-.39-.08-.78-.12-1.18l-.05-.47c-.2.35-.39.69-.58,1.03l-.9,1.58Z"/><path class="cls-2" d="M70.36,2.51h-2.68l.16-.74h6.36l-.17.74h-2.68l-1.45,6.48h-.98l1.45-6.48Z"/><path class="cls-2" d="M70.09,9.24h-1.49l1.45-6.48h-2.68l.27-1.24h6.87l-.29,1.24h-2.68l-1.45,6.48ZM69.23,8.74h.46l1.45-6.48h2.69l.06-.24h-5.84l-.05.24h2.69l-1.45,6.48Z"/></svg>